<svg width="866.45" height="153.656157635468" viewBox="0 0 406 72" class="looka-1j8o68f"><defs id="SvgjsDefs5175"></defs><g id="SvgjsG5176" featurekey="LwVBM5-0" transform="matrix(0.5255255255255256,0,0,0.5255255255255256,-2.6276276276276276,10.372372372372372)" fill="#ffffff"><g xmlns="http://www.w3.org/2000/svg"><path d="M22,86h8c1.104,0,2-0.896,2-2v-8c0-2.607-1.673-4.824-4-5.65V68c0-1.104-0.896-2-2-2s-2,0.896-2,2v2.35   c-2.327,0.826-4,3.043-4,5.65v8C20,85.104,20.896,86,22,86z M24,76c0-1.103,0.897-2,2-2s2,0.897,2,2v6h-4V76z"></path><path d="M70,86h8c1.104,0,2-0.896,2-2v-8c0-2.607-1.673-4.824-4-5.65V68c0-1.104-0.896-2-2-2s-2,0.896-2,2v2.35   c-2.327,0.826-4,3.043-4,5.65v8C68,85.104,68.896,86,70,86z M72,76c0-1.103,0.897-2,2-2s2,0.897,2,2v6h-4V76z"></path><path d="M93,23c1.104,0,2-0.896,2-2v-6c0-1.104-0.896-2-2-2h-4v-1c0-1.86-0.724-3.617-2.053-4.962C85.618,5.724,83.861,5,82,5   c-3.86,0-7,3.141-7,7v1h-4c-1.104,0-2,0.896-2,2v6c0,1.104,0.896,2,2,2h4v15h-8v-8h2c1.104,0,2-0.896,2-2s-0.896-2-2-2h-2.139   c-0.948-7.555-7.177-13.473-14.866-13.95C51.995,12.033,52,12.017,52,12c0-0.13-0.01-0.26-0.04-0.391   c-0.02-0.13-0.06-0.26-0.11-0.38c-0.034-0.081-0.082-0.155-0.129-0.23c0.046-0.075,0.095-0.149,0.129-0.23   c0.05-0.12,0.09-0.25,0.11-0.38C51.99,10.27,52,10.13,52,10c0-0.353-0.101-0.694-0.276-0.993c0.044-0.077,0.091-0.153,0.125-0.237   c0.05-0.12,0.09-0.25,0.11-0.38C51.99,8.27,52,8.13,52,8c0-0.521-0.21-1.04-0.58-1.41c-0.75-0.75-2.09-0.75-2.84,0   C48.21,6.96,48,7.479,48,8c0,0.362,0.102,0.702,0.275,1.001C48.102,9.302,48,9.645,48,10c0,0.13,0.01,0.27,0.04,0.39   c0.02,0.13,0.06,0.26,0.11,0.38c0.035,0.084,0.081,0.159,0.125,0.236c-0.044,0.073-0.092,0.145-0.125,0.224   c-0.05,0.12-0.09,0.25-0.11,0.38C48.01,11.74,48,11.87,48,12c0,0.016,0.005,0.032,0.005,0.049   c-3.888,0.239-7.522,1.852-10.322,4.64c-2.542,2.551-4.108,5.805-4.544,9.312H31c-1.104,0-2,0.896-2,2s0.896,2,2,2h2v8h-8V23h4   c1.104,0,2-0.896,2-2v-6c0-1.104-0.896-2-2-2h-4v-1c0-1.86-0.724-3.617-2.053-4.962C21.618,5.724,19.861,5,18,5   c-3.86,0-7,3.141-7,7v1H7c-1.104,0-2,0.896-2,2v6c0,1.104,0.896,2,2,2h4v15H9c-1.104,0-2,0.896-2,2s0.896,2,2,2h2v10h-1H7   c-1.104,0-2,0.896-2,2v6c0,1.104,0.896,2,2,2h1v31c0,1.104,0.896,2,2,2h32h16h32c1.104,0,2-0.896,2-2V62h1c1.104,0,2-0.896,2-2v-6   c0-1.104-0.896-2-2-2h-3h-1V42h2c1.104,0,2-0.896,2-2s-0.896-2-2-2h-2V23H93z M79,12c0-1.654,1.346-3,3-3   c0.801,0,1.559,0.313,2.118,0.866C84.687,10.441,85,11.199,85,12v1h-6V12z M73,17h18v2H73V17z M62.833,26h-5.131   C57.897,25.034,58,24.026,58,23c0-1.969-0.361-3.799-0.994-5.381C60.035,19.378,62.23,22.421,62.833,26z M46.409,26   C46.14,25.071,46,24.055,46,23c0-4.125,2.108-7,4-7s4,2.875,4,7c0,1.055-0.14,2.071-0.409,3H46.409z M40.511,19.517   c0.751-0.748,1.589-1.373,2.48-1.891C42.36,19.207,42,21.034,42,23c0,1.026,0.103,2.034,0.298,3h-5.132   C37.574,23.56,38.728,21.308,40.511,19.517z M37,30h8.02h9.96H63v8H37V30z M15,12c0-1.654,1.346-3,3-3   c0.801,0,1.559,0.313,2.118,0.866C20.687,10.441,21,11.199,21,12v1h-6V12z M9,17h18v2H9V17z M21,23v15h-6V23H21z M44,91V76   c0-3.309,2.691-6,6-6s6,2.691,6,6v15H44z M88,91h-2v-5c0-1.104-0.896-2-2-2s-2,0.896-2,2v5H66v-5c0-1.104-0.896-2-2-2s-2,0.896-2,2   v5h-2V76c0-5.514-4.486-10-10-10s-10,4.486-10,10v15h-2v-5c0-1.104-0.896-2-2-2s-2,0.896-2,2v5H18v-5c0-1.104-0.896-2-2-2   s-2,0.896-2,2v5h-2V62h76V91z M91,56v2H9v-2h1h3h14h6h14h6h14h6h14h3H91z M31,52h-2v-1.838c0-0.786,0.383-1.503,1-1.943   c0.617,0.44,1,1.157,1,1.943V52z M51,52h-2v-1.838c0-0.786,0.383-1.503,1-1.943c0.617,0.44,1,1.157,1,1.943V52z M71,52h-2v-1.838   c0-0.786,0.383-1.503,1-1.943c0.617,0.44,1,1.157,1,1.943V52z M75,52v-1.838c0-2.753-1.755-5.188-4.367-6.06   c-0.41-0.137-0.855-0.137-1.266,0C66.755,44.975,65,47.409,65,50.162V52H55v-1.838c0-2.753-1.755-5.188-4.367-6.06   c-0.41-0.137-0.855-0.137-1.266,0C46.755,44.975,45,47.409,45,50.162V52H35v-1.838c0-2.753-1.755-5.188-4.367-6.06   c-0.41-0.137-0.855-0.137-1.266,0C26.755,44.975,25,47.409,25,50.162V52H15V42h8h12h30h12h8v10H75z M85,38h-6V23h6V38z"></path></g></g><g id="SvgjsG5177" featurekey="textGroupContainer" transform="matrix(1,0,0,1,405,0)" fill="#ffffff"><rect xmlns="http://www.w3.org/2000/svg" y="0" height="1" width="1" opacity="0"></rect><rect xmlns="http://www.w3.org/2000/svg" y="0" x="-338" width="3" height="72"></rect></g><g id="SvgjsG5178" featurekey="YhTCwJ-0" transform="matrix(1.333727060928077,0,0,1.333727060928077,83.98636490253159,11.491414333920522)" fill="#ffffff"><path d="M5.9 5.48 q2.58 0 3.96 1.66 l-1.38 1.2 q-0.8 -1.26 -2.58 -1.3 q-1.34 0 -2.18 0.64 t-0.84 1.74 q0 0.96 0.64 1.52 t2.4 1.1 q2.28 0.66 3.23 1.61 t0.95 2.57 q0 1.88 -1.4 3 t-3.58 1.14 q-1.46 0 -2.6 -0.52 t-1.76 -1.44 l1.44 -1.18 q0.46 0.76 1.28 1.17 t1.74 0.41 q1.26 0 2.17 -0.71 t0.91 -1.75 q0 -0.94 -0.53 -1.48 t-1.75 -0.92 l-1.62 -0.54 q-1.82 -0.62 -2.57 -1.55 t-0.75 -2.29 q0 -1.8 1.34 -2.93 t3.48 -1.15 z M13.520000000000001 5.84 q0.46 0 0.8 0.33 t0.34 0.81 q0 0.5 -0.32 0.82 t-0.82 0.32 t-0.82 -0.32 t-0.32 -0.82 q0 -0.48 0.34 -0.81 t0.8 -0.33 z M14.3 10.64 l0 9.36 l-1.56 0 l0 -9.36 l1.56 0 z M18.96 4.880000000000001 l0 9.88 l4.26 -4.12 l2.22 0 l-4.52 4.26 l4.98 5.1 l-2.3 0 l-4.64 -4.92 l0 4.92 l-1.56 0 l0 -15.12 l1.56 0 z M28.96 4.880000000000001 l0 7.06 l0.04 0 q0.42 -0.7 1.24 -1.12 t1.78 -0.42 q1.76 0 2.65 1.02 t0.89 2.72 l0 5.86 l-1.56 0 l0 -5.68 q0 -1.08 -0.5 -1.77 t-1.64 -0.71 q-1.44 0 -2.17 0.95 t-0.73 2.57 l0 4.64 l-1.56 0 l0 -15.12 l1.56 0 z M44.32000000000001 5.84 l4.36 11.64 l0.04 0 l4.5 -11.64 l1.78 0 l-5.54 14.16 l-1.62 0 l-5.42 -14.16 l1.9 0 z M57.220000000000006 5.84 q0.46 0 0.8 0.33 t0.34 0.81 q0 0.5 -0.32 0.82 t-0.82 0.32 t-0.82 -0.32 t-0.32 -0.82 q0 -0.48 0.34 -0.81 t0.8 -0.33 z M58.00000000000001 10.64 l0 9.36 l-1.56 0 l0 -9.36 l1.56 0 z M65.7 10.4 q0.36 0 0.64 0.1 l-0.1 1.58 q-0.44 -0.12 -0.84 -0.12 q-1.36 0 -2.05 0.89 t-0.69 2.51 l0 4.64 l-1.56 0 l0 -7.28 q0 -0.28 -0.08 -2.08 l1.48 0 q0.04 1.4 0.04 1.54 l0.04 0 q0.38 -0.8 1.23 -1.29 t1.89 -0.49 z M71.00000000000001 10.4 q2.24 0.02 3.18 1.7 l-1.3 0.86 q-0.68 -1.12 -1.98 -1.12 q-0.78 0 -1.31 0.36 t-0.53 0.94 q0 0.94 2.34 1.36 q1.68 0.3 2.38 0.98 t0.7 1.82 q0 1.38 -1.02 2.16 t-2.72 0.78 q-1.32 0 -2.17 -0.42 t-1.47 -1.32 l1.24 -0.96 q0.58 0.7 1.14 0.98 t1.26 0.28 q0.9 0 1.48 -0.39 t0.58 -1.05 q0 -0.68 -0.61 -1.02 t-2.03 -0.62 q-1.4 -0.3 -2.03 -0.9 t-0.63 -1.66 q0 -1.18 0.97 -1.96 t2.53 -0.8 z M80.26 10.4 q2.04 0 2.97 0.96 t0.95 2.9 l0 4.2 q0 0.6 0.14 1.54 l-1.5 0 q-0.1 -0.18 -0.1 -1.4 l-0.04 0 q-1.06 1.6 -3.08 1.64 q-1.54 0 -2.51 -0.77 t-0.97 -2.01 q0 -1.7 1.4 -2.49 t4.38 -0.79 l0.72 0 l0 -0.26 q0 -2.04 -2.32 -2.08 q-1.68 0 -2.78 1.02 l-0.98 -1.02 q1.44 -1.4 3.72 -1.44 z M77.80000000000001 17.3 q0 1.58 2.06 1.62 q1.22 0 1.99 -0.78 t0.77 -2.28 l0 -0.36 l-1.72 0 q-1.38 0 -2.23 0.44 t-0.87 1.36 z M97.02000000000001 5.48 q2.58 0 3.96 1.66 l-1.38 1.2 q-0.8 -1.26 -2.58 -1.3 q-1.34 0 -2.18 0.64 t-0.84 1.74 q0 0.96 0.64 1.52 t2.4 1.1 q2.28 0.66 3.23 1.61 t0.95 2.57 q0 1.88 -1.4 3 t-3.58 1.14 q-1.46 0 -2.6 -0.52 t-1.76 -1.44 l1.44 -1.18 q0.46 0.76 1.28 1.17 t1.74 0.41 q1.26 0 2.17 -0.71 t0.91 -1.75 q0 -0.94 -0.53 -1.48 t-1.75 -0.92 l-1.62 -0.54 q-1.82 -0.62 -2.57 -1.55 t-0.75 -2.29 q0 -1.8 1.34 -2.93 t3.48 -1.15 z M107.32000000000001 10.4 q2.04 0 2.97 0.96 t0.95 2.9 l0 4.2 q0 0.6 0.14 1.54 l-1.5 0 q-0.1 -0.18 -0.1 -1.4 l-0.04 0 q-1.06 1.6 -3.08 1.64 q-1.54 0 -2.51 -0.77 t-0.97 -2.01 q0 -1.7 1.4 -2.49 t4.38 -0.79 l0.72 0 l0 -0.26 q0 -2.04 -2.32 -2.08 q-1.68 0 -2.78 1.02 l-0.98 -1.02 q1.44 -1.4 3.72 -1.44 z M104.86000000000001 17.3 q0 1.58 2.06 1.62 q1.22 0 1.99 -0.78 t0.77 -2.28 l0 -0.36 l-1.72 0 q-1.38 0 -2.23 0.44 t-0.87 1.36 z M118.72 10.4 q2.14 0 2.94 1.78 q0.56 -0.92 1.26 -1.35 t1.72 -0.43 q1.82 0 2.68 0.95 t0.86 2.87 l0 5.78 l-1.56 0 l0 -5.66 q0 -2.46 -2.28 -2.5 q-1.06 0 -1.74 0.79 t-0.68 1.91 l0 5.46 l-1.56 0 l0 -5.42 q0 -1.38 -0.4 -2.06 t-1.42 -0.68 q-1.42 0 -2.15 0.95 t-0.73 2.63 l0 4.58 l-1.56 0 l0 -7.28 q-0.02 -0.7 -0.08 -2.08 l1.48 0 q0.04 1.38 0.04 1.54 l0.04 0 q0.38 -0.8 1.22 -1.29 t1.92 -0.49 z M132.62 4.880000000000001 l0 7.12 l0.04 0 q1.36 -1.58 3.36 -1.6 q2.22 0 3.56 1.39 t1.36 3.53 q0 2.08 -1.34 3.48 t-3.34 1.44 q-1.2 0 -2.17 -0.52 t-1.43 -1.38 l-0.04 0 l0 1.66 l-1.56 0 l0 -15.12 l1.56 0 z M132.62 15.32 q0 1.54 0.95 2.51 t2.37 0.97 q1.46 0 2.38 -0.97 t0.94 -2.51 q0 -1.52 -0.93 -2.5 t-2.41 -0.98 q-1.44 0 -2.36 0.97 t-0.94 2.51 z M144.92 4.880000000000001 l0 7.06 l0.04 0 q0.42 -0.7 1.24 -1.12 t1.78 -0.42 q1.76 0 2.65 1.02 t0.89 2.72 l0 5.86 l-1.56 0 l0 -5.68 q0 -1.08 -0.5 -1.77 t-1.64 -0.71 q-1.44 0 -2.17 0.95 t-0.73 2.57 l0 4.64 l-1.56 0 l0 -15.12 l1.56 0 z M158.08 10.4 q2.04 0 2.97 0.96 t0.95 2.9 l0 4.2 q0 0.6 0.14 1.54 l-1.5 0 q-0.1 -0.18 -0.1 -1.4 l-0.04 0 q-1.06 1.6 -3.08 1.64 q-1.54 0 -2.51 -0.77 t-0.97 -2.01 q0 -1.7 1.4 -2.49 t4.38 -0.79 l0.72 0 l0 -0.26 q0 -2.04 -2.32 -2.08 q-1.68 0 -2.78 1.02 l-0.98 -1.02 q1.44 -1.4 3.72 -1.44 z M155.62 17.3 q0 1.58 2.06 1.62 q1.22 0 1.99 -0.78 t0.77 -2.28 l0 -0.36 l-1.72 0 q-1.38 0 -2.23 0.44 t-0.87 1.36 z M166.56 4.880000000000001 l0 15.12 l-1.56 0 l0 -15.12 l1.56 0 z M179.64000000000001 5.48 q2.58 0 3.96 1.66 l-1.38 1.2 q-0.8 -1.26 -2.58 -1.3 q-1.34 0 -2.18 0.64 t-0.84 1.74 q0 0.96 0.64 1.52 t2.4 1.1 q2.28 0.66 3.23 1.61 t0.95 2.57 q0 1.88 -1.4 3 t-3.58 1.14 q-1.46 0 -2.6 -0.52 t-1.76 -1.44 l1.44 -1.18 q0.46 0.76 1.28 1.17 t1.74 0.41 q1.26 0 2.17 -0.71 t0.91 -1.75 q0 -0.94 -0.53 -1.48 t-1.75 -0.92 l-1.62 -0.54 q-1.82 -0.62 -2.57 -1.55 t-0.75 -2.29 q0 -1.8 1.34 -2.93 t3.48 -1.15 z M189.94000000000003 10.4 q2.04 0 2.97 0.96 t0.95 2.9 l0 4.2 q0 0.6 0.14 1.54 l-1.5 0 q-0.1 -0.18 -0.1 -1.4 l-0.04 0 q-1.06 1.6 -3.08 1.64 q-1.54 0 -2.51 -0.77 t-0.97 -2.01 q0 -1.7 1.4 -2.49 t4.38 -0.79 l0.72 0 l0 -0.26 q0 -2.04 -2.32 -2.08 q-1.68 0 -2.78 1.02 l-0.98 -1.02 q1.44 -1.4 3.72 -1.44 z M187.48000000000002 17.3 q0 1.58 2.06 1.62 q1.22 0 1.99 -0.78 t0.77 -2.28 l0 -0.36 l-1.72 0 q-1.38 0 -2.23 0.44 t-0.87 1.36 z M198.20000000000002 4.880000000000001 l0 7.12 l0.04 0 q1.36 -1.58 3.36 -1.6 q2.22 0 3.56 1.39 t1.36 3.53 q0 2.08 -1.34 3.48 t-3.34 1.44 q-1.2 0 -2.17 -0.52 t-1.43 -1.38 l-0.04 0 l0 1.66 l-1.56 0 l0 -15.12 l1.56 0 z M198.20000000000002 15.32 q0 1.54 0.95 2.51 t2.37 0.97 q1.46 0 2.38 -0.97 t0.94 -2.51 q0 -1.52 -0.93 -2.5 t-2.41 -0.98 q-1.44 0 -2.36 0.97 t-0.94 2.51 z M210.5 4.880000000000001 l0 7.06 l0.04 0 q0.42 -0.7 1.24 -1.12 t1.78 -0.42 q1.76 0 2.65 1.02 t0.89 2.72 l0 5.86 l-1.56 0 l0 -5.68 q0 -1.08 -0.5 -1.77 t-1.64 -0.71 q-1.44 0 -2.17 0.95 t-0.73 2.57 l0 4.64 l-1.56 0 l0 -15.12 l1.56 0 z M223.66000000000003 10.4 q2.04 0 2.97 0.96 t0.95 2.9 l0 4.2 q0 0.6 0.14 1.54 l-1.5 0 q-0.1 -0.18 -0.1 -1.4 l-0.04 0 q-1.06 1.6 -3.08 1.64 q-1.54 0 -2.51 -0.77 t-0.97 -2.01 q0 -1.7 1.4 -2.49 t4.38 -0.79 l0.72 0 l0 -0.26 q0 -2.04 -2.32 -2.08 q-1.68 0 -2.78 1.02 l-0.98 -1.02 q1.44 -1.4 3.72 -1.44 z M221.20000000000002 17.3 q0 1.58 2.06 1.62 q1.22 0 1.99 -0.78 t0.77 -2.28 l0 -0.36 l-1.72 0 q-1.38 0 -2.23 0.44 t-0.87 1.36 z"></path></g><g id="SvgjsG5179" featurekey="duLK5n-0" transform="matrix(0.3587582091904236,0,0,0.3587582091904236,84.75604413719695,47.09140660766051)" fill="#ffffff"><path d="M8.22 10.84 l5.92 0 l0 6.3 c-1.42 1.9 -3.66 3.08 -6.02 3.08 c-4.1 0 -7.44 -3.34 -7.44 -7.46 c0 -4.1 3.34 -7.44 7.44 -7.44 c2.02 0 3.9 0.8 5.28 2.2 l-1.32 1.16 c-1.04 -1.04 -2.46 -1.6 -3.96 -1.6 c-3.14 0 -5.68 2.54 -5.68 5.68 c0 3.16 2.54 5.7 5.68 5.7 c1.66 0 3.18 -0.7 4.28 -1.92 l0 -3.94 l-4.18 0 l0 -1.76 z M38.760000000000005 5.76 l1.8 0 l0 9.02 c0 3 -2.44 5.42 -5.44 5.42 c-2.98 0 -5.42 -2.42 -5.42 -5.42 l0 -9.02 l1.78 0 l0 9.02 c0 2.02 1.64 3.68 3.64 3.68 c2.02 0 3.64 -1.66 3.64 -3.68 l0 -9.02 z M61.980000000000004 12.42 l5.5 7.58 l-2.06 0 l-5.44 -7.48 l-2.04 0 l0 7.48 l-1.72 0 l0 -14.24 l4.94 0 c0.9 0 1.74 0.36 2.38 1 s1 1.48 1 2.38 c0 1.58 -1.1 2.9 -2.56 3.28 z M57.940000000000005 7.48 l0 3.32 l3.22 0 c0.92 0 1.66 -0.74 1.66 -1.66 s-0.74 -1.66 -1.66 -1.66 l-3.22 0 z M90.06 5.76 l1.8 0 l0 9.02 c0 3 -2.44 5.42 -5.44 5.42 c-2.98 0 -5.42 -2.42 -5.42 -5.42 l0 -9.02 l1.78 0 l0 9.02 c0 2.02 1.64 3.68 3.64 3.68 c2.02 0 3.64 -1.66 3.64 -3.68 l0 -9.02 z M135 20 l-7.62 -11.26 l0 11.26 l-1.8 0 l0 -14.24 l1.96 0 l7.6 11.26 l0 -11.26 l1.8 0 l0 14.24 l-1.94 0 z M162.32 20 l-1.58 -4.14 l-5.82 0 l-1.58 4.14 l-1.92 0 l5.48 -14.24 l1.86 0 l5.5 14.24 l-1.94 0 z M160.04 14.1 l-2.2 -5.76 l-2.22 5.76 l4.42 0 z M188.83999999999997 20 l-7.62 -11.26 l0 11.26 l-1.8 0 l0 -14.24 l1.96 0 l7.6 11.26 l0 -11.26 l1.8 0 l0 14.24 l-1.94 0 z M216.15999999999997 20 l-1.58 -4.14 l-5.82 0 l-1.58 4.14 l-1.92 0 l5.48 -14.24 l1.86 0 l5.5 14.24 l-1.94 0 z M213.87999999999997 14.1 l-2.2 -5.76 l-2.22 5.76 l4.42 0 z M243.71999999999994 20 l-5.9 -8.28 l-3.08 2.9 l0 5.38 l-1.78 0 l0 -14.24 l1.78 0 l0 6.46 l6.86 -6.46 l2.56 0 l-4.98 4.7 l6.8 9.54 l-2.26 0 z M277.99999999999994 20 l0 -14.24 l4.6 0 c4.04 0 7.32 3.2 7.32 7.12 s-3.28 7.12 -7.32 7.12 l-4.6 0 z M282.5999999999999 18.26 c3.06 0 5.54 -2.44 5.54 -5.38 s-2.48 -5.38 -5.54 -5.38 l-2.82 0 l0 10.76 l2.82 0 z M313.47999999999996 20 l-1.58 -4.14 l-5.82 0 l-1.58 4.14 l-1.92 0 l5.48 -14.24 l1.86 0 l5.5 14.24 l-1.94 0 z M311.19999999999993 14.1 l-2.2 -5.76 l-2.22 5.76 l4.42 0 z M335.84 12.42 l5.5 7.58 l-2.06 0 l-5.44 -7.48 l-2.04 0 l0 7.48 l-1.72 0 l0 -14.24 l4.94 0 c0.9 0 1.74 0.36 2.38 1 s1 1.48 1 2.38 c0 1.58 -1.1 2.9 -2.56 3.28 z M331.79999999999995 7.48 l0 3.32 l3.22 0 c0.92 0 1.66 -0.74 1.66 -1.66 s-0.74 -1.66 -1.66 -1.66 l-3.22 0 z M355.8 20 l0 -14.24 l5.12 0 c0.9 0 1.76 0.36 2.38 1 c0.64 0.62 1 1.48 1 2.38 c0 0.7 -0.2 1.36 -0.6 1.92 l-0.02 0.02 l0.02 0.02 c0.56 0.22 1.08 0.56 1.5 1 c0.88 0.86 1.36 2.02 1.36 3.26 c0 1.22 -0.48 2.38 -1.36 3.26 c-0.86 0.86 -2.02 1.38 -3.24 1.38 l-6.16 0 z M357.58 18.26 l4.38 0 c1.56 -0.04 2.82 -1.36 2.82 -2.9 c0 -1.56 -1.26 -2.84 -2.82 -2.86 l-4.38 0 l0 5.76 z M357.58 10.76 l3.34 0 c0.88 -0.02 1.6 -0.74 1.6 -1.62 s-0.7 -1.6 -1.6 -1.64 l-3.34 0 l0 3.26 z M391.18000000000006 20 l-1.58 -4.14 l-5.82 0 l-1.58 4.14 l-1.92 0 l5.48 -14.24 l1.86 0 l5.5 14.24 l-1.94 0 z M388.90000000000003 14.1 l-2.2 -5.76 l-2.22 5.76 l4.42 0 z M413.5400000000001 12.42 l5.5 7.58 l-2.06 0 l-5.44 -7.48 l-2.04 0 l0 7.48 l-1.72 0 l0 -14.24 l4.94 0 c0.9 0 1.74 0.36 2.38 1 s1 1.48 1 2.38 c0 1.58 -1.1 2.9 -2.56 3.28 z M409.50000000000006 7.48 l0 3.32 l3.22 0 c0.92 0 1.66 -0.74 1.66 -1.66 s-0.74 -1.66 -1.66 -1.66 l-3.22 0 z"></path></g></svg>